<svg id="Layer_1" data-name="Layer 1" xmlns="http://www.w3.org/2000/svg" viewBox="0 0 130.79 31.92"><defs><style>.cls-1{fill:#808285;}.cls-1,.cls-2,.cls-3{stroke:#808285;stroke-miterlimit:10;}.cls-1,.cls-2{stroke-width:0.25px;}.cls-2,.cls-3{fill:none;}.cls-3{stroke-width:0.5px;}.cls-4{font-size:20.29px;fill:#f7941d;font-family:YuGothicUI-Semilight, Yu Gothic UI;font-weight:300;letter-spacing:0.01em;}.cls-5,.cls-9{font-size:12.17px;}.cls-5{letter-spacing:0.01em;}.cls-6{letter-spacing:0.01em;}.cls-7{font-size:18.26px;letter-spacing:0.01em;}.cls-8{font-size:22.31px;letter-spacing:0.01em;}.cls-9{letter-spacing:0.01em;}</style></defs><path class="cls-1" d="M9.64,40.11,8.56,42.5h-5A2.22,2.22,0,0,1,1.4,40.29V37.92a2.21,2.21,0,0,0,2.21,2.19Z" transform="translate(-1.28 -15.82)"/><path class="cls-2" d="M8.42,19.36c.14-1.2.95-2.07,1.79-2s1.38,1.15,1.23,2.35a2.2,2.2,0,0,1-1.4,2,.82.82,0,0,1-.38,0C8.83,21.61,8.26,20.55,8.42,19.36Z" transform="translate(-1.28 -15.82)"/><rect class="cls-2" x="17.19" y="3.57" width="1.48" height="8.26"/><polygon class="cls-2" points="21.85 9.29 21.71 9.42 21.71 9.29 21.85 9.29"/><path class="cls-1" d="M28,37.92v2.37a2.22,2.22,0,0,1-2.22,2.21H22.62l0-2.39h3.14A2.21,2.21,0,0,0,28,37.92Z" transform="translate(-1.28 -15.82)"/><path class="cls-2" d="M25.74,16H3.61A2.22,2.22,0,0,0,1.4,18.16V37.92a2.21,2.21,0,0,0,2.21,2.19h6L8.56,42.5h2.19l1.08-2.39,3.08-6.94V32.11H6.15l3.59-8.37,4.75,5.66h8.25L18,40.11h7.74A2.21,2.21,0,0,0,28,37.92V18.16A2.22,2.22,0,0,0,25.74,16ZM10,21.69a.82.82,0,0,1-.38,0c-.83-.1-1.4-1.16-1.24-2.35s.95-2.07,1.79-2,1.38,1.15,1.23,2.35A2.2,2.2,0,0,1,10,21.69ZM25.1,25.12h-2l-.14.12V29H21l0-2.19-1.1.85v0H18.46V19.4h1.48v0l2.72,2.49H25.1Z" transform="translate(-1.28 -15.82)"/><path class="cls-2" d="M8.42,19.36c.14-1.2.95-2.07,1.79-2s1.38,1.15,1.23,2.35a2.2,2.2,0,0,1-1.4,2,.82.82,0,0,1-.38,0C8.83,21.61,8.26,20.55,8.42,19.36Z" transform="translate(-1.28 -15.82)"/><polygon class="cls-2" points="21.32 24.29 21.34 26.68 13.55 26.68 14.61 24.29 19.36 13.57 21.46 13.57 16.72 24.29 21.32 24.29"/><polygon class="cls-1" points="23.82 6.11 23.82 9.29 21.71 9.29 21.71 13.15 19.74 13.15 19.76 10.96 18.67 11.81 18.67 3.61 21.38 6.11 23.82 6.11"/><rect class="cls-2" x="17.19" y="3.57" width="1.48" height="8.26"/><polygon class="cls-2" points="21.85 9.29 21.71 9.42 21.71 9.29 21.85 9.29"/><polyline class="cls-2" points="8.36 24.29 10.98 18.36 11 18.36 11.01 18.34"/><line class="cls-2" x1="24.47" y1="13.57" x2="21.47" y2="13.57"/><line class="cls-3" x1="24.47" y1="13.15" x2="21.71" y2="13.15"/><polyline class="cls-3" points="19.74 13.15 15.2 13.15 14.3 13.15"/><line class="cls-2" x1="7.5" y1="5.31" x2="2" y2="18.36"/><line class="cls-2" x1="8.77" y1="5.87" x2="15.19" y2="13.16"/><path class="cls-2" d="M11.44,19.74a2.2,2.2,0,0,1-1.4,2,.82.82,0,0,1-.38,0c-.83-.1-1.4-1.16-1.24-2.35s.95-2.07,1.79-2S11.59,18.54,11.44,19.74Z" transform="translate(-1.28 -15.82)"/><polyline class="cls-2" points="18.61 3.55 18.63 3.57 18.67 3.61"/><rect class="cls-2" x="17.19" y="3.57" width="1.48" height="8.26"/><line class="cls-2" x1="10.99" y1="18.36" x2="2" y2="18.36"/><text class="cls-4" transform="translate(31.92 25.17)">S<tspan class="cls-5" x="10.71" y="0">U</tspan><tspan x="19.01" y="0">L</tspan><tspan class="cls-5" x="28.71" y="0">E</tspan><tspan class="cls-6" x="35" y="0">K</tspan><tspan class="cls-5" x="46.51" y="0">H</tspan><tspan class="cls-7" x="55.12" y="0"> </tspan><tspan class="cls-8" x="60.38" y="0">L</tspan><tspan class="cls-9" x="71.05" y="0">ASER</tspan></text></svg>